<svg width="256" height="144" viewBox="0 0 256 144" fill="none" xmlns="http://www.w3.org/2000/svg">
<path d="M45.1867 3.59999C42.3867 2.59999 39.3867 1.99999 36.3867 1.99999H9.78672V37.2C9.78672 54.4 0.386719 54.4 0.386719 72C0.386719 89.2 9.78672 89.2 9.78672 106.8V142H27.5867H36.3867C39.3867 142 42.3867 141.4 44.9867 140.4C54.9867 137 62.1867 127.8 62.5867 116.8V106.8C62.5867 89.2 53.1867 89.2 53.1867 72C53.1867 68.6 53.5867 65.8 54.1867 63.4C55.5867 56.8 58.5867 50.6 54.7867 45.6C58.1867 43 62.5867 37.2 62.5867 29.4C62.5867 29 62.5867 28.4 62.5867 28V27.4C62.1867 16.4 54.9867 7 45.1867 3.59999ZM44.9867 28.8C44.5867 33.4 40.9867 36.8 36.3867 36.8H27.5867V19.6H36.3867C40.9867 19.6 44.5867 23.2 44.9867 27.6C44.9867 27.8 45.1867 28 45.1867 28V28.2C45.1867 28.4 44.9867 28.6 44.9867 28.8ZM44.9867 116.6C44.5867 121 40.7867 124.4 36.3867 124.4H27.3867V106.8C27.3867 89.2 17.9867 89.2 17.9867 72C17.9867 63.2 20.3867 58.8 22.5867 54.6H29.7867C37.1867 54.6 38.7867 57 37.3867 60.8C36.3867 63.6 35.5867 67.2 35.5867 72C35.5867 89.2 44.9867 89.2 44.9867 106.8V116.6ZM126.845 124.4H91.6445V106.8C91.6445 89.2 82.2445 89.2 82.2445 72C82.2445 54.4 91.6445 54.4 91.6445 37.2V1.99999H74.0445V37.2C74.0445 54.4 64.6445 54.4 64.6445 72C64.6445 89.2 74.0445 89.2 74.0445 106.8V142H126.845V124.4ZM173.702 1.99999C170.902 0.999991 167.902 0.399999 164.902 0.399999C161.702 0.399999 158.902 0.999991 156.102 1.99999C145.702 5.59999 138.502 15.4 138.502 26.8V28.8C138.502 29.6 138.502 32.2 138.502 33.4V37.2C138.502 54.4 128.902 54.4 128.902 72C128.902 89.2 138.502 89.2 138.502 106.8V117C138.502 128.6 145.702 138.4 156.102 142C158.902 143 161.702 143.4 164.902 143.4C167.902 143.4 170.902 143 173.702 142C183.902 138.4 191.302 128.6 191.302 117V106.8C191.302 89.2 181.902 89.2 181.902 72C181.902 54.4 191.302 54.4 191.302 37.2V33.4C191.302 32.4 191.302 30.2 191.302 29.4V26.8C191.302 15.4 183.902 5.59999 173.702 1.99999ZM173.702 29.4C173.702 30.2 173.702 32.4 173.702 33.4V37.2C173.702 54.4 164.302 54.4 164.302 72C164.302 89.2 173.702 89.2 173.702 106.8V117C173.702 122 169.702 125.8 164.902 125.8C159.902 125.8 156.102 122 156.102 117V106.8C156.102 89.2 146.502 89.2 146.502 72C146.502 54.4 156.102 54.4 156.102 37.2V33.4C156.102 32.4 156.102 30.2 156.102 29.4V26.8C156.102 22 159.902 18 164.902 18C169.702 18 173.702 22 173.702 26.8V29.4ZM237.955 35.2H255.555V26.8C255.555 15.2 248.355 5.39999 237.955 1.79999C235.355 0.799994 232.355 0.19999 229.155 0.19999C226.155 0.19999 223.155 0.799994 220.355 1.79999C210.155 5.39999 202.755 15.2 202.755 26.8V38.4C202.755 55.6 193.355 55.6 193.355 73.2C193.355 90.6 202.755 90.6 202.755 108V113.4V116.8C202.755 128.4 210.155 138.2 220.355 141.8C223.155 142.8 226.155 143.4 229.155 143.4C232.355 143.4 235.355 142.8 237.955 141.8C248.355 138.2 255.555 128.4 255.555 116.8V109.8V108C255.555 90.6 246.155 90.6 246.155 73.2C246.155 63.4 249.155 59.2 251.755 54.2H228.155C225.755 58.8 222.955 63 222.755 71.8H228.555V73.2C228.555 90.6 237.955 90.6 237.955 108V116.8C237.955 121.8 234.155 125.6 229.155 125.6C224.355 125.6 220.355 121.8 220.355 116.8V108C220.355 90.6 210.955 90.6 210.955 73.2C210.955 55.6 220.355 55.6 220.355 38.4V26.8C220.355 21.8 224.355 18 229.155 18C234.155 18 237.955 21.8 237.955 26.8V35.2Z" fill="#231F20"/>
</svg>
